<svg xmlns="http://www.w3.org/2000/svg" viewBox="0, 0, 400, 400">
   <circle cx="200" cy="200" r="190" stroke="#f6b3e5" stroke-width="3" fill="#f6b3e5" />
   
   <polyline points="60,140 340,140" stroke="black" stroke-width="3"/>
   <polyline points="60,200 340,200" stroke="black" stroke-width="3"/>
   <polyline points="60,260 340,260" stroke="black" stroke-width="3"/>
   
   <polyline points="140,60 140,340" stroke="black" stroke-width="3"/>
   <polyline points="200,60 200,340" stroke="black" stroke-width="3"/>
   <polyline points="260,60 260,340" stroke="black" stroke-width="3"/>
   
   <rect x="125" y="125" rx="20" ry="20" width="150" height="150" stroke="black" stroke-width="5" fill="yellow"/>
	
   <rect x="140" y="135" rx="5" ry="5" width="20" height="60" stroke="black" stroke-width="3" fill="white"/>
   
   <circle cx="200" cy="165" r="30" stroke="black" stroke-width="3" fill="white" />
   <circle cx="200" cy="165" r="15" stroke="black" stroke-width="3" fill="yellow" />
   
   <rect x="240" y="135" rx="5" ry="5" width="20" height="60" stroke="black" stroke-width="3" fill="white"/>
   
   
   <rect x="140" y="205" rx="5" ry="5" width="20" height="60" stroke="black" stroke-width="3" fill="white"/>
  
   <circle cx="200" cy="235" r="30" stroke="black" stroke-width="3" fill="white" />
   <circle cx="200" cy="235" r="15" stroke="black" stroke-width="3" fill="yellow" />
   
   <rect x="240" y="205" rx="5" ry="5" width="20" height="60" stroke="black" stroke-width="3" fill="white"/>
  
</svg>